Coordinates
version=1
nRows=12
nColumns=24
inDegrees=yes

Units are S.I. units (second, meters, Newtons, ...)
Angles are in degrees.

endheader
time	pelvis_tilt	pelvis_list	pelvis_rotation	pelvis_tx	pelvis_ty	pelvis_tz	hip_flexion_r	hip_adduction_r	hip_rotation_r	knee_angle_r	ankle_angle_r	subtalar_angle_r	mtp_angle_r	hip_flexion_l	hip_adduction_l	hip_rotation_l	knee_angle_l	ankle_angle_l	subtalar_angle_l	mtp_angle_l	lumbar_extension	lumbar_bending	lumbar_rotation
      1.37100000	      8.45165088	      6.19892841	     -4.46953152	      0.41049235	      1.02291773	      0.29036075	      5.69839049	    -10.08688441	     -2.77120169	    -72.03152339	    -11.32909242	    -16.30192688	     -0.92032923	     -1.37830615	     12.23249212	      6.60475024	    -12.10669691	      3.82589249	    -20.03545661	     -6.74715255	    -21.65316036	     -1.59097028	     -1.04641046
      1.37516667	      8.45012061	      5.89977354	     -4.41876240	      0.41530481	      1.02408632	      0.28992256	      6.27047366	     -9.70251555	     -2.80298689	    -71.90570132	    -10.79508455	    -16.35969306	     -1.05716598	     -1.99752888	     11.92518518	      6.73398772	    -11.52234906	      3.77733746	    -20.03234540	     -6.75356625	    -21.66655180	     -1.15654077	     -1.28274667
      1.37933333	      8.38881169	      5.60397328	     -4.36876868	      0.42010551	      1.02512418	      0.28949895	      6.90394059	     -9.30995021	     -2.82745568	    -71.74353029	    -10.25525026	    -16.44794637	     -1.11883831	     -2.52720676	     11.61217227	      6.80187594	    -10.98263183	      3.73529920	    -19.97050122	     -6.75776650	    -21.61800693	     -0.72362379	     -1.40606710
      1.38350000	      8.35372747	      5.29436221	     -4.30694833	      0.42490402	      1.02616318	      0.28906877	      7.48505511	     -8.90160318	     -2.86667730	    -71.51427560	     -9.73803326	    -16.48016531	     -1.18984341	     -3.09296877	     11.28519505	      6.90061364	    -10.43049660	      3.70849348	    -19.91858541	     -6.76171999	    -21.59585681	     -0.26973097	     -1.61145886
      1.38766667	      8.36820067	      5.00969324	     -4.23639611	      0.42972093	      1.02721980	      0.28862745	      7.99169933	     -8.53281094	     -2.92668300	    -71.22630494	     -9.23362363	    -16.45788264	     -1.34361086	     -3.73327946	     10.98773088	      7.05434736	     -9.83174513	      3.66401372	    -19.92310530	     -6.76917350	    -21.60430710	      0.15096042	     -1.99395733
      1.39183333	      8.32748882	      4.70935358	     -4.16464928	      0.43452040	      1.02815538	      0.28819905	      8.54917489	     -8.13168482	     -2.97787303	    -70.89331703	     -8.72264388	    -16.47302101	     -1.48483798	     -4.28716171	     10.66550430	      7.14798141	     -9.28452605	      3.62717746	    -19.87769825	     -6.77662913	    -21.57031439	      0.58858542	     -2.21014905
      1.39600000	      8.29927622	      4.41449146	     -4.10052775	      0.43929326	      1.02906090	      0.28778207	      9.08370363	     -7.73530305	     -3.02244562	    -70.51255616	     -8.19328455	    -16.49515669	     -1.55590569	     -4.83742343	     10.34705352	      7.18112093	     -8.76013371	      3.58860032	    -19.77823867	     -6.78169224	    -21.56860149	      1.02194710	     -2.34352839
      1.40016667	      8.30466785	      4.11646170	     -4.01982680	      0.44408279	      1.02995603	      0.28736613	      9.55582349	     -7.34005767	     -3.08884965	    -70.06898612	     -7.68045703	    -16.43754245	     -1.68051828	     -5.43835202	     10.02436937	      7.26705859	     -8.21268083	      3.58413001	    -19.69734826	     -6.78792095	    -21.58242553	      1.45630160	     -2.63619106
      1.40433333	      8.26736803	      3.83865873	     -3.94595402	      0.44888033	      1.03073375	      0.28698187	     10.06824417	     -6.95950541	     -3.14655742	    -69.58959475	     -7.12629989	    -16.44753208	     -1.73329183	     -5.96449446	      9.71689861	      7.27044834	     -7.71287644	      3.54638544	    -19.58532176	     -6.79226858	    -21.54525403	      1.83599427	     -2.75592761
      1.40850000	      8.28351705	      3.56491229	     -3.86488363	      0.45365800	      1.03150770	      0.28656825	     10.50747688	     -6.59390828	     -3.20989696	    -69.06050409	     -6.59540864	    -16.32170455	     -1.85682197	     -6.56660831	      9.41873825	      7.34728577	     -7.17593282	      3.55894226	    -19.48293305	     -6.79823110	    -21.58393663	      2.25952735	     -3.07790182
      1.41266667	      8.28246754	      3.29771213	     -3.78632734	      0.45844283	      1.03222517	      0.28618114	     10.94994900	     -6.23156699	     -3.27244688	    -68.47675939	     -6.04762165	    -16.24705411	     -1.96643299	     -7.13124127	      9.12256211	      7.36933172	     -6.67105531	      3.55006069	    -19.36494033	     -6.80455700	    -21.58778739	      2.64082686	     -3.29152628
      1.41683333	      8.22906624	      3.03872037	     -3.70035793	      0.46323301	      1.03280005	      0.28580858	     11.43908804	     -5.86859004	     -3.33273803	    -67.85898116	     -5.47292250	    -16.20697314	     -2.01645378	     -7.61618246	      8.82998545	      7.36009813	     -6.20960832	      3.52764063	    -19.23568187	     -6.80844607	    -21.54534543	      3.01957251	     -3.40837075
